<svg width="64" height="64" viewBox="0 0 64 64" fill="none" xmlns="http://www.w3.org/2000/svg">
  <path d="M4 38C4 18 16 4 32 4C48 4 60 18 60 38H4Z" fill="#0a0a0a" />
  <path d="M4 38C4 40 6 42 10 42H54C58 42 60 40 60 38H4Z" fill="#1a1a1a" />
  <path d="M24 42H40V56C40 58.2 38.2 60 36 60H28C25.8 60 24 58.2 24 56V42Z" fill="#0a0a0a" />
  <path d="M29 42H35V56C35 57.1 34.1 58 33 58H31C29.9 58 29 57.1 29 56V42Z" fill="#1a1a1a" opacity="0.3" />
  <circle cx="18" cy="26" r="1.8" fill="#ffffff" />
  <circle cx="32" cy="16" r="1.8" fill="#ffffff" />
  <circle cx="46" cy="26" r="1.8" fill="#ffffff" />
  <line x1="18" y1="26" x2="32" y2="16" stroke="#ffffff" stroke-width="1" stroke-linecap="round" />
  <line x1="32" y1="16" x2="46" y2="26" stroke="#ffffff" stroke-width="1" stroke-linecap="round" />
</svg>
